<svg version="1.1" id="Lag_1" xmlns="http://www.w3.org/2000/svg" x="0px" y="0px" viewBox="0 0 687.7 220" style="enable-background:new 0 0 687.7 220;" xml:space="preserve">
<style type="text/css">
	.st0{fill:#CC0000;}
	.st1{fill:#FFFFFF;}
</style>
<rect class="st0" width="687.7" height="220"/>
<g id="DK_byline">
	<path class="st1" d="M110.3,134.2l-11.8,24.4h55.9c11.7,0,22.3-4.5,30-11.8c4-3.8,7.2-8.3,9.4-13.3c2-4.7,3.1-9.8,3.1-15.2V60.9
		h-25.5v57.2c0,2.1-0.4,4.2-1.2,6c-0.9,2-2.1,3.8-3.7,5.3c-3.1,2.9-7.4,4.8-12.1,4.8C154.4,134.2,110.3,134.2,110.3,134.2z"/>
	<path class="st1" d="M535.2,134.2c-4.7,0-9-1.8-12.1-4.8c-1.6-1.5-2.9-3.3-3.7-5.3c-0.8-1.9-1.2-3.9-1.2-6v-4.2v-53h-25.5v57.4
		c0,5.4,1.1,10.5,3.1,15.2c2.2,5,5.4,9.5,9.4,13.3c7.7,7.3,18.3,11.8,30,11.8h55.9l-11.8-24.4L535.2,134.2L535.2,134.2z"/>
	<path class="st1" d="M223.3,146.8c7.7,7.3,18.3,11.8,30,11.8H295c11.7,0,22.3-4.5,30-11.8c4-3.8,7.2-8.3,9.4-13.3
		c2-4.7,3.1-9.8,3.1-15.2V60.9H312v57.2c0,2.1-0.4,4.2-1.2,6c-0.9,2-2.1,3.8-3.7,5.3c-3.1,2.9-7.4,4.8-12.1,4.8h-41.7
		c-4.7,0-9-1.8-12.1-4.8c-1.6-1.5-2.9-3.3-3.7-5.3c-0.8-1.9-1.2-3.9-1.2-6V60.9h-25.5v57.5c0,5.4,1.1,10.5,3.1,15.2
		C216.1,138.6,219.3,143.1,223.3,146.8L223.3,146.8z"/>
	<path class="st1" d="M365,146.8c7.7,7.3,18.3,11.8,30,11.8h41.7c11.7,0,22.3-4.5,30-11.8c4-3.8,7.2-8.3,9.4-13.3
		c2-4.7,3.1-9.8,3.1-15.2V60.9h-25.5v57.2c0,2.1-0.4,4.2-1.2,6c-0.9,2-2.1,3.8-3.7,5.3c-3.1,2.9-7.4,4.8-12.1,4.8H395
		c-4.7,0-9-1.8-12.1-4.8c-1.6-1.5-2.9-3.3-3.7-5.3c-0.8-1.9-1.2-3.9-1.2-6v-7.8V60.9h-25.5v57.5c0,5.4,1.1,10.5,3.1,15.2
		C357.8,138.6,361,143.1,365,146.8L365,146.8z"/>
</g>
</svg>
