<svg viewBox="0 0 37 43" fill="currentColor" aria-hidden="true">
    <path d="M7.877,25.445C7.081,25.322 6.344,25.869 6.225,26.662C5.746,29.827 5.07,32.846 4.213,35.635C3.979,36.401 4.409,37.212 5.175,37.447C5.317,37.49 5.46,37.511 5.6,37.511C6.221,37.511 6.795,37.109 6.987,36.486C7.884,33.561 8.593,30.402 9.094,27.096C9.213,26.304 8.669,25.565 7.877,25.445M20.257,10.567C18.323,10.187 16.568,10.551 15.177,11.629C13.478,12.948 12.416,15.275 12.265,18.013C11.986,23.106 11.544,26.993 10.836,30.618C10.682,31.404 11.195,32.165 11.98,32.319C12.77,32.479 13.529,31.96 13.681,31.174C14.417,27.414 14.873,23.404 15.161,18.173C15.264,16.302 15.935,14.712 16.954,13.921C17.683,13.358 18.574,13.189 19.691,13.412C22.053,13.882 22.853,15.632 22.641,19.869C22.437,23.961 21.94,28.097 21.161,32.164C21.011,32.951 21.526,33.711 22.312,33.861C22.405,33.879 22.497,33.887 22.586,33.887C23.268,33.887 23.877,33.404 24.009,32.709C24.813,28.51 25.327,24.239 25.536,20.014C25.651,17.74 25.952,11.701 20.257,10.567M21.814,36.105C21.044,35.908 20.248,36.372 20.048,37.147C19.775,38.201 19.472,39.246 19.152,40.287C18.917,41.053 19.347,41.864 20.112,42.099C20.254,42.143 20.398,42.164 20.538,42.164C21.159,42.164 21.732,41.763 21.925,41.139C22.257,40.056 22.573,38.968 22.855,37.872C23.055,37.097 22.589,36.306 21.814,36.105"/>
    <path d="M11.583,34.064C10.821,33.86 10.015,34.317 9.808,35.09C9.529,36.135 9.198,37.23 8.796,38.437C8.544,39.196 8.955,40.017 9.715,40.27C9.867,40.32 10.021,40.345 10.173,40.345C10.78,40.345 11.346,39.96 11.549,39.352C11.968,38.089 12.316,36.94 12.61,35.839C12.817,35.065 12.357,34.271 11.583,34.064M18.956,15.66L18.95,15.66C18.152,15.66 17.503,16.305 17.5,17.103C17.465,25.08 16.187,32.993 13.802,39.986C13.544,40.744 13.949,41.568 14.707,41.826C14.862,41.879 15.02,41.905 15.175,41.905C15.779,41.905 16.342,41.525 16.548,40.922C19.031,33.634 20.363,25.403 20.4,17.116C20.403,16.315 19.757,15.663 18.956,15.66M18.836,2.9C19.637,2.893 20.281,2.238 20.274,1.437C20.267,0.636 19.649,0.036 18.811,0C11.039,0.068 4.099,5.578 2.31,13.101C1.858,14.998 1.791,16.934 1.726,18.806C1.692,19.793 1.66,20.726 1.575,21.648C1.27,24.977 0.753,28.174 0.04,31.152C-0.147,31.931 0.333,32.714 1.112,32.9C1.226,32.928 1.339,32.941 1.451,32.941C2.106,32.941 2.701,32.493 2.86,31.828C3.606,28.715 4.145,25.379 4.463,21.913C4.555,20.909 4.59,19.891 4.624,18.906C4.687,17.097 4.746,15.387 5.13,13.771C6.616,7.528 12.38,2.956 18.836,2.9M25.402,1.256C24.66,0.955 23.814,1.31 23.513,2.053C23.211,2.795 23.568,3.642 24.31,3.943C30.061,6.279 33.356,11.875 33.123,18.91C32.941,24.402 32.271,29.942 31.134,35.379C30.97,36.162 31.473,36.93 32.257,37.095C32.356,37.116 32.456,37.126 32.555,37.126C33.226,37.126 33.83,36.656 33.973,35.972C35.144,30.373 35.834,24.665 36.021,19.007C36.292,10.829 32.223,4.027 25.402,1.256M18.562,5.229C14.603,5.361 10.864,7.531 8.803,10.894C7.208,13.497 7.094,16.266 6.983,18.945C6.957,19.594 6.929,20.245 6.881,20.895C6.819,21.694 7.418,22.39 8.216,22.451C9.025,22.514 9.712,21.913 9.772,21.115C9.824,20.432 9.852,19.747 9.88,19.064C9.98,16.65 10.074,14.369 11.275,12.409C12.833,9.868 15.661,8.227 18.657,8.128C22.081,8.025 25.255,9.864 26.862,12.834C28.213,15.326 28.003,18.227 27.782,21.299L27.746,21.798C27.689,22.596 28.292,23.29 29.091,23.346C29.126,23.349 29.16,23.35 29.194,23.35C29.948,23.35 30.585,22.766 30.639,22.002L30.674,21.507C30.905,18.312 31.166,14.69 29.413,11.453C27.287,7.524 22.988,5.089 18.562,5.229M28.903,25.293C28.127,25.204 27.387,25.763 27.289,26.558C26.761,30.936 25.967,35.131 24.929,39.028C24.722,39.802 25.182,40.596 25.956,40.802C26.082,40.836 26.208,40.852 26.331,40.852C26.972,40.852 27.558,40.423 27.731,39.774C28.804,35.747 29.624,31.417 30.169,26.906C30.264,26.111 29.698,25.389 28.903,25.293"/>
</svg>
