<svg viewBox="0 0 45 37" fill="currentColor" aria-hidden="true">
    <path d="M36.83,16.595C36.83,15.794 36.181,15.145 35.38,15.145L11.02,15.145C10.219,15.145 9.57,15.794 9.57,16.595C9.57,17.396 10.219,18.045 11.02,18.045L35.38,18.045C36.181,18.045 36.83,17.396 36.83,16.595M11.02,20.945C10.219,20.945 9.57,21.594 9.57,22.395C9.57,23.196 10.219,23.845 11.02,23.845L21.113,23.845C21.914,23.845 22.563,23.196 22.563,22.395C22.563,21.594 21.914,20.945 21.113,20.945L11.02,20.945ZM27.26,12.245C28.061,12.245 28.71,11.596 28.71,10.795C28.71,9.994 28.061,9.345 27.26,9.345L17.98,9.345C17.179,9.345 16.53,9.994 16.53,10.795C16.53,11.596 17.179,12.245 17.98,12.245L27.26,12.245ZM41.76,-0L2.32,-0C1.039,-0 -0,1.038 -0,2.32L-0,31.32C-0,32.601 1.039,33.64 2.32,33.64L24.356,33.64L24.356,29L8.12,29C8.12,27.078 6.562,25.52 4.64,25.52L4.64,8.12C6.562,8.12 8.12,6.562 8.12,4.64L35.96,4.64C35.96,6.562 37.518,8.12 39.44,8.12L39.44,25.52C37.518,25.52 35.96,27.078 35.96,29L35.956,29L35.956,33.64L41.76,33.64C43.041,33.64 44.08,32.601 44.08,31.32L44.08,2.32C44.08,1.038 43.041,-0 41.76,-0"/>
    <path d="M27.256,31.484L27.256,36.377C27.256,36.682 27.507,36.895 27.776,36.895C27.877,36.895 27.981,36.865 28.074,36.798L29.855,35.526C29.945,35.462 30.051,35.43 30.156,35.43C30.262,35.43 30.367,35.462 30.457,35.526L32.238,36.798C32.331,36.865 32.435,36.895 32.537,36.895C32.805,36.895 33.056,36.682 33.056,36.377L33.056,31.484C32.172,31.891 31.192,32.125 30.156,32.125C29.12,32.125 28.14,31.891 27.256,31.484M30.156,29.225C32.398,29.225 34.216,27.407 34.216,25.165C34.216,22.923 32.398,21.105 30.156,21.105C27.914,21.105 26.096,22.923 26.096,25.165C26.096,27.407 27.914,29.225 30.156,29.225"/>
</svg>
