<svg viewBox="0 0 50 60" fill="currentColor" aria-hidden="true">
    <path d="M40.635,59.472C40.314,59.124 40.042,58.252 40.122,57.83C40.192,57.463 40.14,57.473 39.937,57.866C39.84,58.053 39.813,58.225 39.872,58.284C40.067,58.48 39.315,58.429 38.842,58.215C38.307,57.972 37.525,57.929 37.162,58.123C37.029,58.194 36.677,58.445 36.379,58.68L35.837,59.108L35.006,58.528C34.549,58.209 34.078,57.857 33.96,57.747C33.842,57.637 33.71,57.547 33.668,57.547C33.625,57.547 33.416,57.415 33.204,57.253C32.902,57.023 31.849,56.529 31.7,56.548C31.685,56.55 31.508,56.494 31.307,56.424C30.888,56.278 30.724,56.032 30.724,55.55C30.724,55.184 31.022,54.932 31.272,55.087C31.431,55.185 31.81,55.119 31.897,54.978C31.927,54.93 31.775,54.681 31.561,54.423C31.158,53.941 31.056,53.466 31.304,53.218C31.378,53.145 31.407,53.085 31.368,53.085C31.33,53.085 31.444,52.939 31.621,52.762C32.023,52.36 32.492,52.192 33.211,52.192C33.685,52.192 33.842,52.252 34.255,52.59C34.522,52.809 34.74,53.079 34.74,53.191C34.74,53.497 35.058,53.82 35.8,54.27C36.495,54.691 37.03,54.848 36.937,54.605C36.906,54.524 37.001,54.461 37.176,54.446C37.565,54.414 37.739,54.22 37.773,53.782C37.806,53.347 37.98,53.322 38.356,53.698C38.51,53.852 38.694,53.977 38.766,53.977C38.989,53.977 38.781,53.273 38.48,53.008L38.202,52.763L38.495,52.534C38.826,52.273 38.911,52.259 39.203,52.415C39.357,52.498 39.457,52.48 39.593,52.344C39.748,52.189 39.815,52.183 40.045,52.306C40.194,52.386 40.345,52.545 40.382,52.661C40.427,52.803 40.514,52.85 40.653,52.806C40.966,52.707 41.407,52.857 41.466,53.082C41.502,53.221 41.701,53.323 42.107,53.409C42.43,53.479 42.713,53.517 42.736,53.494C42.759,53.471 42.737,53.34 42.686,53.203C42.606,52.985 42.576,52.975 42.454,53.122C42.271,53.343 41.629,53.149 41.68,52.888C41.747,52.55 42.081,52.455 42.454,52.669L42.8,52.867L42.745,52.576C42.7,52.343 42.746,52.262 42.982,52.162C43.144,52.093 43.362,51.965 43.468,51.877C43.589,51.776 43.781,51.741 43.988,51.782C44.396,51.864 44.505,51.647 44.327,51.108C44.218,50.778 44.229,50.706 44.408,50.575C44.587,50.443 44.646,50.452 44.847,50.64C44.975,50.759 45.276,50.883 45.516,50.915C46.64,51.065 46.787,51.114 47.171,51.465C47.485,51.753 47.571,51.916 47.571,52.224C47.571,52.557 47.522,52.634 47.246,52.73C47.067,52.792 46.89,52.812 46.852,52.775C46.749,52.672 46.467,52.616 45.764,52.559C45.017,52.498 44.679,52.684 44.391,53.314C44.135,53.874 43.639,54.053 43.204,53.743C42.862,53.499 42.78,53.564 43.051,53.864C43.142,53.965 43.247,54.197 43.283,54.379C43.337,54.649 43.302,54.736 43.089,54.85C42.816,54.996 41.992,56.179 41.992,56.426C41.992,56.505 41.844,56.738 41.663,56.945C41.283,57.377 41.15,57.922 41.263,58.587C41.477,59.855 41.482,59.779 41.189,59.779C41.037,59.779 40.794,59.644 40.635,59.472M40.384,57.035C40.4,56.478 40.214,56.38 39.913,56.787C39.592,57.222 39.593,57.197 39.9,57.32C40.264,57.466 40.373,57.402 40.384,57.035M39.775,55.509C39.665,55.4 39.652,55.413 39.712,55.572C39.754,55.682 39.817,55.744 39.851,55.709C39.885,55.675 39.851,55.585 39.775,55.509M39.565,55.009C39.535,54.84 39.391,54.587 39.245,54.447C38.932,54.145 38.893,54.28 39.184,54.659C39.296,54.806 39.42,55.013 39.46,55.121C39.567,55.416 39.625,55.355 39.565,55.009M27.173,56.571C27.118,56.464 27.043,56.112 27.007,55.788C26.97,55.465 26.865,55.093 26.773,54.962C26.559,54.657 26.671,54.445 27.261,54.036C27.675,53.749 27.701,53.704 27.546,53.533C27.27,53.229 27.339,52.721 27.711,52.304C28.023,51.954 28.092,51.816 28.059,51.606C28.052,51.56 28.084,51.534 28.13,51.547C28.483,51.652 29.29,50.578 29.255,50.05C29.234,49.74 29.685,48.956 29.884,48.956C29.963,48.956 30.092,49.035 30.171,49.13C30.46,49.478 29.967,51.343 29.393,52.074C29.222,52.292 28.996,52.747 28.891,53.085C28.786,53.422 28.655,53.799 28.601,53.921C28.449,54.263 27.97,55.772 27.882,56.182C27.84,56.382 27.712,56.595 27.598,56.656C27.321,56.804 27.289,56.798 27.173,56.571M13.988,54.815C13.988,54.569 13.947,54.542 13.626,54.572C13.426,54.591 12.896,54.772 12.789,54.818C12.237,55.055 11.498,54.676 11.589,54.204C11.645,53.912 11.462,53.797 10.808,53.713C10.318,53.65 9.622,53.46 8.912,53.194C7.959,52.837 7.729,52.815 6.967,53.011C6.555,53.117 6.133,53.172 6.03,53.132C5.797,53.043 5.686,52.632 5.764,52.149C5.797,51.947 5.756,51.46 5.674,51.067C5.548,50.465 5.549,50.235 5.677,49.626C5.761,49.227 5.901,48.731 5.989,48.523C6.152,48.138 6.149,48.118 5.81,46.892C5.699,46.494 5.679,46.095 5.739,45.498C5.835,44.533 5.628,43.269 5.301,42.82C5.168,42.638 4.83,42.455 4.327,42.293C3.574,42.05 3.054,41.65 3.054,41.315C3.054,41.231 2.908,41.057 2.728,40.93C2.549,40.802 2.369,40.548 2.329,40.364C2.255,40.029 1.998,39.91 1.91,40.17C1.844,40.367 2.138,41.058 2.374,41.261C2.611,41.465 2.78,42.039 2.604,42.039C2.537,42.039 2.514,42.089 2.552,42.151C2.59,42.212 2.568,42.262 2.503,42.262C2.438,42.262 2.114,41.985 1.783,41.646C1.38,41.233 1.008,40.971 0.659,40.852C-0.114,40.588 -0.171,40.358 0.302,39.411C0.516,38.985 0.803,38.264 0.94,37.809C1.174,37.036 1.186,36.855 1.113,35.075C1.071,34.027 1.026,33.074 1.013,32.958C1.001,32.842 1.043,32.728 1.107,32.705C1.297,32.638 1.498,33.37 1.57,34.39C1.619,35.096 1.677,35.345 1.791,35.345C1.876,35.345 1.974,35.27 2.01,35.178C2.045,35.086 2.131,35.008 2.202,35.005C2.272,35.002 2.576,34.779 2.878,34.508L3.428,34.016L3.28,33.568C3.199,33.322 3.082,33.152 3.02,33.19C2.957,33.23 2.943,33.204 2.988,33.13C3.081,32.98 2.964,32.529 2.851,32.599C2.809,32.624 2.76,32.362 2.741,32.016C2.703,31.332 2.593,31.154 1.894,30.643C1.327,30.228 1.226,30.239 1.303,30.711C1.337,30.923 1.337,31.375 1.302,31.715C1.24,32.313 1.227,32.332 0.903,32.332L0.569,32.332L0.653,31.747C0.7,31.425 0.724,30.985 0.707,30.771C0.646,30.012 0.719,28.943 0.858,28.539C0.93,28.332 0.93,28.325 1.025,26.732C1.11,25.294 1.239,24.983 1.553,25.462C1.659,25.624 1.769,25.733 1.798,25.704C1.857,25.645 2.056,25.791 2.45,26.183C2.669,26.402 2.747,26.424 2.884,26.31C3.08,26.148 2.992,25.93 2.765,26.017C2.68,26.05 2.623,26.035 2.637,25.985C2.652,25.935 2.417,25.628 2.115,25.305C1.607,24.759 1.556,24.731 1.419,24.918C1.338,25.029 1.233,25.082 1.187,25.035C1.14,24.988 1.108,24.189 1.116,23.258C1.131,21.515 1.164,21.049 1.281,20.952C1.437,20.823 2.05,19.429 2.05,19.203C2.05,18.878 2.234,18.777 2.443,18.987C2.578,19.122 2.59,19.251 2.504,19.635C2.436,19.939 2.435,20.155 2.502,20.222C2.56,20.28 2.608,20.419 2.608,20.531C2.608,20.646 2.73,20.781 2.887,20.841C3.138,20.936 3.218,21.067 3.179,21.315C3.159,21.442 3.366,21.415 3.449,21.279C3.49,21.214 3.592,21.187 3.676,21.219C3.76,21.251 3.856,21.233 3.889,21.178C3.923,21.124 4.088,21.151 4.256,21.238C4.423,21.326 4.642,21.398 4.742,21.398C4.842,21.398 4.986,21.474 5.063,21.566C5.139,21.658 5.272,21.733 5.359,21.733C5.666,21.733 5.626,21.421 5.233,20.749C4.945,20.258 4.662,19.954 4.223,19.662C3.482,19.171 3.47,19.153 3.482,18.552C3.489,18.232 3.439,18.052 3.333,18.011C3.119,17.929 3.033,18.093 3.116,18.425C3.214,18.818 2.959,18.923 2.699,18.597C2.517,18.371 2.495,18.213 2.549,17.555C2.616,16.754 2.808,16.321 3.767,14.816C4.466,13.719 4.66,13.464 5.481,12.567C5.926,12.08 6.29,11.636 6.29,11.579C6.29,11.522 6.427,11.404 6.595,11.316C6.866,11.174 6.962,11.18 7.476,11.372C8.086,11.601 8.82,11.595 8.965,11.362C9.011,11.287 9.093,11.234 9.147,11.243C9.202,11.252 9.523,11.136 9.86,10.984C10.747,10.587 11.037,10.566 12.062,10.821C12.963,11.045 12.998,11.045 13.834,10.848C14.535,10.683 14.828,10.54 15.481,10.042C16.374,9.36 17.112,8.406 17.112,8.246C17.112,8.193 17.195,8.08 17.297,7.996C17.46,7.86 18.141,6.54 18.539,5.589C18.617,5.4 18.964,4.936 19.309,4.557C19.654,4.178 20.035,3.683 20.154,3.457C20.578,2.657 20.946,2.469 21.461,2.791C21.64,2.902 21.894,2.871 22.873,2.619C24.018,2.323 24.094,2.284 24.745,1.664C26.548,-0.052 26.553,-0.055 27.012,0.026C28.028,0.206 28.018,0.261 26.813,1.195C26.21,1.662 25.907,1.977 25.861,2.184C25.663,3.063 25.621,3.296 25.606,3.594C25.59,3.933 25.85,4.44 26.04,4.44C26.1,4.44 26.258,4.548 26.391,4.681C26.701,4.992 26.795,5.838 26.57,6.29C26.439,6.553 26.427,6.82 26.507,7.675C26.684,9.545 26.674,10.019 26.458,10.178C26.352,10.256 25.304,11.521 25.096,12.538C25.006,12.974 24.588,13.767 24.258,14.126C24.023,14.381 23.811,15.835 23.762,15.914C23.633,16.123 23.899,18.166 24.024,18.484C24.15,18.803 24.253,19.243 24.253,19.461L24.253,19.858L23.746,19.561C23.141,19.206 22.763,19.221 22.709,19.601C22.677,19.825 22.709,19.858 22.909,19.806C23.04,19.771 23.283,19.814 23.449,19.901C23.615,19.988 23.801,20.061 23.862,20.064C23.924,20.066 24.136,20.208 24.335,20.378L24.697,20.688L24.307,21.065C23.876,21.483 23.828,21.605 24.101,21.581C24.213,21.572 24.387,21.762 24.548,22.068C24.941,22.815 25.062,22.961 25.289,22.961C25.402,22.961 25.585,23.009 25.695,23.068C25.92,23.188 27.966,22.869 28.567,22.619C28.892,22.484 28.957,22.496 29.376,22.774C29.722,23.003 29.832,23.148 29.834,23.381C29.835,23.608 29.949,23.766 30.28,24C30.524,24.173 30.724,24.399 30.724,24.503C30.724,24.607 30.598,24.928 30.445,25.216C30.284,25.518 30.166,25.925 30.166,26.176C30.166,26.518 30.069,26.735 29.723,27.17C29.479,27.476 29.303,27.759 29.332,27.798C29.361,27.838 29.357,27.85 29.323,27.826C29.248,27.774 28.606,28.345 28.637,28.436C28.65,28.471 28.572,28.587 28.464,28.695C28.329,28.83 28.269,29.068 28.267,29.468C28.265,30.222 28.172,30.367 27.784,30.219C27.356,30.056 26.98,28.985 27.352,28.985C27.434,28.985 27.47,28.935 27.432,28.874C27.299,28.658 26.97,28.766 26.602,29.146L26.229,29.531L26.42,29.932C26.524,30.152 26.594,30.44 26.575,30.571C26.53,30.873 25.992,31.076 25.755,30.879C25.56,30.717 25.539,30.198 25.721,30.017C25.819,29.919 25.815,29.846 25.707,29.715C25.515,29.484 25.452,29.496 25.088,29.833C24.821,30.081 24.762,30.098 24.679,29.95C24.626,29.855 24.517,29.712 24.436,29.631C24.356,29.551 24.255,29.347 24.213,29.177C24.153,28.938 24.18,28.853 24.334,28.799C24.443,28.76 24.613,28.659 24.713,28.573C24.813,28.488 24.96,28.433 25.041,28.451C25.122,28.469 25.208,28.383 25.234,28.26C25.259,28.137 25.35,27.957 25.436,27.86C25.574,27.705 25.558,27.667 25.308,27.553C25.151,27.482 24.976,27.423 24.918,27.423C24.751,27.423 24.37,27.789 24.432,27.89C24.463,27.94 24.441,27.981 24.383,27.981C24.325,27.981 24.243,28.119 24.201,28.288C24.16,28.457 23.946,28.781 23.725,29.008C23.357,29.388 23.323,29.48 23.307,30.124C23.298,30.525 23.358,30.982 23.449,31.188C23.544,31.404 23.572,31.628 23.518,31.746C23.469,31.854 23.424,32.143 23.418,32.388C23.371,34.345 23.377,34.306 23.025,34.658C22.769,34.915 22.691,35.094 22.691,35.426C22.691,35.835 22.54,36.126 22.327,36.126C22.275,36.126 22.131,35.897 22.007,35.618C21.772,35.086 21.485,34.899 20.908,34.899C20.67,34.899 20.5,35.011 20.236,35.345C19.85,35.833 19.86,35.848 20.655,35.939C21.192,36 21.393,35.844 20.979,35.686C20.785,35.613 20.71,35.505 20.722,35.316C20.735,35.098 20.795,35.053 21.05,35.068C21.487,35.094 21.571,35.222 21.499,35.755C21.456,36.075 21.391,36.203 21.291,36.164C21.068,36.079 20.896,37.019 21.092,37.251C21.22,37.402 21.207,37.46 21.005,37.642C20.875,37.759 20.725,37.968 20.672,38.106C20.6,38.297 20.487,38.357 20.207,38.357C20.003,38.357 19.646,38.455 19.412,38.574C18.782,38.895 18.617,38.895 17.815,38.576C17.613,38.496 17.579,38.512 17.623,38.669C17.653,38.774 17.617,38.746 17.545,38.608C17.472,38.47 17.351,38.357 17.276,38.357C17.201,38.357 17.077,38.282 17.001,38.19C16.924,38.098 16.705,38.025 16.513,38.028L16.164,38.032L16.554,38.24C17.009,38.482 17.837,39.232 17.913,39.47C17.956,39.605 18.036,39.613 18.368,39.51C18.707,39.407 18.782,39.415 18.838,39.56C18.875,39.655 18.853,39.785 18.789,39.849C18.726,39.912 18.674,40.034 18.674,40.119C18.674,40.278 18.248,40.69 18.077,40.697C18.025,40.699 17.73,40.926 17.423,41.202C16.933,41.643 16.801,41.705 16.347,41.708C16.061,41.71 15.729,41.787 15.606,41.881C15.396,42.041 15.408,42.049 15.829,42.025C16.78,41.971 17.095,42.577 16.438,43.197C16.111,43.506 16.101,43.543 16.16,44.256C16.243,45.265 16.337,45.886 16.425,46.016C16.465,46.076 16.621,46.208 16.771,46.311C17.022,46.483 17.059,46.483 17.243,46.317C17.406,46.17 17.474,46.162 17.612,46.277C17.935,46.545 17.802,46.79 17.363,46.733C17.287,46.723 17.224,46.761 17.224,46.816C17.224,46.872 17.037,47.2 16.809,47.546C16.404,48.161 16.164,48.299 15.92,48.054C15.833,47.967 15.668,48.016 15.332,48.228C14.937,48.478 14.886,48.55 15.005,48.693C15.118,48.829 15.117,48.88 14.997,48.953C14.879,49.026 14.898,49.114 15.088,49.381C15.412,49.836 15.387,49.964 14.905,50.333L14.49,50.65L15.187,50.612C15.584,50.591 15.902,50.622 15.927,50.686C15.952,50.747 16.115,50.881 16.291,50.982C16.606,51.165 16.61,51.164 16.61,50.894C16.61,50.703 16.534,50.601 16.359,50.557C16.049,50.479 16.044,50.399 16.336,50.15C16.461,50.042 16.541,49.918 16.514,49.874C16.437,49.75 17.463,49.806 17.809,49.944C17.978,50.012 18.117,50.03 18.118,49.986C18.119,49.941 18.16,49.968 18.209,50.045C18.372,50.302 19.041,50.735 19.165,50.664C19.233,50.626 19.258,50.628 19.222,50.669C19.186,50.71 19.462,51.057 19.836,51.44C20.366,51.983 20.552,52.112 20.682,52.025C20.824,51.931 20.828,51.941 20.709,52.094C20.598,52.236 20.596,52.394 20.697,52.835C20.844,53.471 20.78,53.754 20.489,53.754C20.379,53.754 20.099,53.855 19.868,53.979C19.36,54.252 18.791,54.159 18.62,53.777C18.546,53.611 18.411,53.531 18.208,53.531C18.042,53.531 17.878,53.485 17.844,53.43C17.808,53.371 17.672,53.381 17.521,53.452C17.285,53.563 17.274,53.602 17.403,53.85C17.521,54.078 17.517,54.18 17.381,54.443C17.243,54.71 17.168,54.749 16.913,54.69C16.747,54.652 16.504,54.554 16.373,54.473C15.937,54.201 15.232,54.301 14.654,54.716C14.365,54.923 14.097,55.093 14.059,55.093C14.02,55.093 13.988,54.968 13.988,54.815M17.736,51.729C17.843,51.556 17.473,51.299 17.119,51.3L16.833,51.3L17.157,51.579C17.519,51.89 17.621,51.916 17.736,51.729M7.245,22.971C7.21,22.915 7.275,22.894 7.389,22.924C7.565,22.97 7.606,22.892 7.664,22.397C7.736,21.793 7.597,21.336 7.383,21.469C7.315,21.511 7.291,21.494 7.329,21.432C7.367,21.37 7.34,21.164 7.268,20.973C7.13,20.609 7.165,20.505 7.44,20.465C7.636,20.436 7.963,20.181 7.963,20.058C7.963,20.011 8.118,19.806 8.307,19.604C8.597,19.294 8.723,19.239 9.116,19.252L9.581,19.267L9.191,19.095C8.976,19 8.781,18.904 8.757,18.881C8.734,18.858 8.96,18.511 9.259,18.11C9.619,17.629 9.906,17.358 10.103,17.313C10.297,17.27 10.381,17.192 10.342,17.092C10.31,17.007 10.239,16.964 10.184,16.998C10.045,17.084 10.209,16.674 10.354,16.575C10.42,16.53 10.662,16.492 10.892,16.491C11.432,16.489 11.455,16.775 10.946,17.135L10.585,17.39L11.041,17.319C11.426,17.259 11.54,17.289 11.767,17.51C12.046,17.783 12.101,17.953 12.118,18.609C12.129,19.044 12.056,19.374 11.872,19.718C11.804,19.844 11.773,19.948 11.802,19.948C11.832,19.948 11.708,20.11 11.527,20.308C11.273,20.587 11.199,20.773 11.199,21.138C11.199,21.397 11.241,21.635 11.293,21.667C11.345,21.699 11.526,21.581 11.695,21.405C11.947,21.142 11.989,21.023 11.926,20.739C11.861,20.44 11.881,20.394 12.083,20.394C12.22,20.394 12.315,20.467 12.315,20.572C12.315,20.715 12.396,20.735 12.742,20.677C13.069,20.621 13.206,20.649 13.326,20.793C13.47,20.967 13.488,20.961 13.557,20.716C13.691,20.237 13.658,19.645 13.49,19.505C13.361,19.398 13.253,19.407 12.971,19.547C12.703,19.681 12.579,19.694 12.464,19.599C12.339,19.495 12.338,19.45 12.458,19.348C12.538,19.279 12.671,19.025 12.753,18.784C12.888,18.385 12.883,18.329 12.692,18.17C12.576,18.074 12.465,17.895 12.445,17.773C12.424,17.65 12.364,17.504 12.311,17.449C12.256,17.392 12.281,17.188 12.37,16.976C12.461,16.758 12.516,16.29 12.504,15.843C12.483,15.103 12.493,15.073 12.873,14.735C13.087,14.545 13.452,14.214 13.682,14.001C13.912,13.788 14.267,13.582 14.47,13.544C15.093,13.427 16.777,13.853 16.777,14.127C16.777,14.184 16.702,14.293 16.61,14.37C16.518,14.446 16.443,14.553 16.443,14.606C16.443,14.815 16.622,14.685 16.885,14.285C17.036,14.055 17.304,13.679 17.48,13.449C17.795,13.038 17.813,13.031 18.563,13.031C19.45,13.031 19.68,12.965 19.675,12.712C19.672,12.549 19.659,12.551 19.558,12.724C19.495,12.831 19.315,12.919 19.158,12.919C18.879,12.919 18.876,12.912 19.052,12.644C19.271,12.31 19.276,12.25 19.082,12.25C18.898,12.25 18.536,12.632 18.63,12.727C18.668,12.764 18.39,12.77 18.013,12.741C17.445,12.696 17.273,12.725 17.007,12.914C16.653,13.167 16.041,13.22 15.969,13.003C15.933,12.897 15.796,12.908 15.374,13.051C14.283,13.423 14.008,13.545 13.557,13.857C13.033,14.22 12.927,14.182 12.477,13.469C12.251,13.111 12.181,13.072 11.85,13.119C11.645,13.149 11.345,13.266 11.182,13.38C11.019,13.495 10.804,13.589 10.704,13.589C10.604,13.589 10.353,13.659 10.146,13.746C9.827,13.879 9.736,13.88 9.552,13.751C9.308,13.58 9.229,13.632 8.562,14.394C8.319,14.673 8.127,14.789 7.931,14.777C7.777,14.768 7.673,14.722 7.702,14.676C7.73,14.63 7.708,14.593 7.653,14.593C7.499,14.593 7.212,14.946 7.076,15.303C6.956,15.621 6.957,15.623 7.32,15.553C7.753,15.47 8.15,15.415 8.49,15.391C8.739,15.374 9.14,14.802 9,14.663C8.962,14.624 8.985,14.593 9.052,14.593C9.119,14.593 9.333,14.459 9.527,14.296C9.98,13.914 10.104,14.076 10.009,14.928C9.924,15.688 9.694,16.173 9.437,16.131C9.148,16.083 9.136,16.542 9.415,16.994L9.655,17.382L9.324,17.801C9.141,18.031 8.886,18.314 8.757,18.431C8.627,18.548 8.521,18.71 8.521,18.79C8.521,18.87 8.365,19.114 8.175,19.331C7.919,19.622 7.739,19.725 7.485,19.725C7.126,19.725 6.625,19.355 6.625,19.091C6.625,18.971 6.582,18.969 6.404,19.08C6.239,19.183 6.152,19.185 6.057,19.09C5.896,18.93 6.038,18.686 6.245,18.766C6.331,18.799 6.401,18.774 6.401,18.71C6.401,18.647 5.931,18.022 5.732,18.042C5.498,18.064 5.687,18.719 5.708,18.816C5.764,19.084 4.28,19.62 4.087,19.624C3.922,19.627 5.255,19.412 5.436,19.517C5.572,19.596 5.68,19.599 5.752,19.526C5.934,19.344 6.315,19.504 6.254,19.737C6.214,19.89 6.258,19.935 6.427,19.917C6.584,19.9 6.665,19.968 6.694,20.143C6.74,20.424 6.572,20.487 6.473,20.227C6.437,20.135 6.349,20.06 6.276,20.06C6.195,20.06 6.218,20.142 6.336,20.272C6.463,20.413 6.487,20.509 6.407,20.558C6.34,20.599 6.315,20.679 6.35,20.736C6.385,20.793 6.287,20.965 6.134,21.119C5.959,21.293 5.502,21.45 5.597,21.45C5.691,21.45 6.186,21.581 6.23,21.873C6.371,22.804 6.419,22.948 6.604,22.997C6.949,23.088 7.308,23.073 7.245,22.971M6.587,22.328C6.368,22.109 6.585,21.287 6.862,21.287C7.045,21.287 7.071,21.744 6.906,22.062C6.717,22.428 6.701,22.442 6.587,22.328M11.421,15.875C11.316,15.748 11.309,15.665 11.397,15.577C11.566,15.408 11.893,15.556 11.849,15.783C11.799,16.041 11.595,16.085 11.421,15.875M14.059,22.273C14.204,22.292 14.323,22.253 14.323,22.188C14.323,22.035 13.69,22.03 13.597,22.181C13.441,22.433 13.298,22.134 13.367,21.702C13.43,21.307 13.418,21.27 13.267,21.395C13.045,21.579 13.049,21.894 13.277,22.241C13.428,22.471 13.487,22.495 13.627,22.378C13.72,22.301 13.915,22.254 14.059,22.273M5.899,17.717C6.006,17.511 6.16,17.382 6.3,17.382C6.582,17.382 6.959,17.188 6.959,17.043C6.959,16.984 6.884,16.936 6.792,16.936C6.584,16.936 6.585,16.831 6.795,16.552C6.886,16.433 6.956,16.207 6.951,16.05C6.946,15.838 7.052,15.352 6.996,15.49C6.894,15.739 5.973,17.047 5.842,17.047C5.648,17.047 5.377,17.587 5.451,17.823C5.553,18.142 5.697,18.108 5.899,17.717M23.841,54.369C23.546,54.032 23.233,53.756 23.146,53.755C23.059,53.755 23.016,53.726 23.051,53.691C23.085,53.657 23.006,53.511 22.874,53.367C22.48,52.936 22.343,52.75 22.421,52.75C22.462,52.75 22.445,52.687 22.385,52.61C22.236,52.421 22.12,51.907 22.207,51.82C22.246,51.781 22.47,51.923 22.704,52.135C22.939,52.348 23.258,52.553 23.413,52.592C23.568,52.631 23.695,52.705 23.695,52.756C23.695,52.808 23.82,52.985 23.974,53.151C24.225,53.422 24.319,53.392 24.266,53.057C24.245,52.925 24.529,52.959 24.677,53.107C24.75,53.181 24.811,53.356 24.811,53.497C24.811,53.8 24.875,53.817 25.114,53.578C25.274,53.418 25.309,53.422 25.503,53.616C25.812,53.925 25.671,54.413 25.249,54.498C25.075,54.532 24.848,54.655 24.743,54.771C24.638,54.887 24.514,54.981 24.466,54.981C24.417,54.981 24.137,54.706 23.841,54.369M36.107,53.787C35.906,53.713 35.935,53.456 36.154,53.372C36.426,53.267 36.612,53.495 36.409,53.686C36.32,53.77 36.184,53.816 36.107,53.787M26.484,53.475C26.317,53.274 26.415,52.973 26.648,52.973C26.755,52.973 26.819,53.075 26.819,53.245C26.819,53.585 26.664,53.692 26.484,53.475M34.917,52.827C34.754,52.707 34.748,52.65 34.874,52.412C34.991,52.191 35.091,52.143 35.382,52.171C35.834,52.215 35.851,52.436 35.426,52.738C35.163,52.926 35.074,52.941 34.917,52.827M25.837,52.133C25.506,51.452 25.524,51.352 26.01,51.148C26.475,50.954 27.056,50.525 26.86,50.521C26.791,50.52 26.668,50.599 26.586,50.697C26.35,50.982 25.939,51.093 25.55,50.977C24.922,50.789 24.202,50.612 23.956,50.585C23.824,50.57 23.475,50.402 23.181,50.211C22.887,50.019 22.613,49.884 22.572,49.91C22.53,49.935 22.466,50.11 22.428,50.299C22.37,50.587 22.334,50.619 22.202,50.496C22.115,50.417 22.066,50.316 22.092,50.273C22.168,50.147 21.73,49.961 21.356,49.961C20.741,49.961 20.807,49.34 21.45,49.074L21.779,48.937L21.555,48.556C21.373,48.249 21.261,48.175 20.973,48.175C20.776,48.175 20.555,48.115 20.482,48.042C20.289,47.849 20.305,48.158 20.514,48.658C20.702,49.107 20.607,49.241 20.179,49.133C19.899,49.063 19.896,49.049 19.885,47.972C19.881,47.611 19.842,47.505 19.727,47.549C19.643,47.581 19.539,47.552 19.497,47.484C19.451,47.409 19.471,47.391 19.549,47.44C19.62,47.483 19.678,47.466 19.678,47.401C19.678,47.336 19.609,47.283 19.524,47.283C19.258,47.283 18.999,46.545 18.975,45.721C18.955,45.02 18.93,44.942 18.727,44.941C18.2,44.939 17.725,44.18 18.144,44.009C18.249,43.967 18.243,43.921 18.116,43.824C17.989,43.727 17.983,43.682 18.089,43.639C18.316,43.547 18.128,43.378 17.799,43.378C17.444,43.378 17.061,42.86 17.223,42.599C17.285,42.498 17.243,42.348 17.104,42.17C16.819,41.808 16.83,41.756 17.226,41.592C17.412,41.515 17.605,41.378 17.656,41.287C17.707,41.196 17.975,41.097 18.257,41.066C18.727,41.013 18.77,41.029 18.804,41.27C18.827,41.434 18.951,41.571 19.134,41.635C19.372,41.718 19.497,41.684 19.804,41.452C20.011,41.295 20.64,40.982 21.202,40.758C21.764,40.534 22.311,40.253 22.419,40.135C22.64,39.891 23.304,39.84 23.408,40.059C23.444,40.135 23.453,40.085 23.428,39.947C23.392,39.758 23.434,39.696 23.595,39.696C23.995,39.696 24.968,40.431 25.094,40.827C25.139,40.967 25.266,41.035 25.484,41.035C25.689,41.035 25.849,41.114 25.922,41.251C26.077,41.539 26.068,41.593 25.869,41.593C25.742,41.593 25.713,41.688 25.749,41.983C25.781,42.234 25.751,42.375 25.667,42.378C25.441,42.385 24.89,42.901 24.97,43.031C25.072,43.195 25.376,43.191 25.34,43.026C25.309,42.881 25.727,42.635 26.149,42.551C26.303,42.52 26.529,42.418 26.651,42.323C26.868,42.156 26.868,42.146 26.668,41.991C26.555,41.903 26.379,41.857 26.278,41.888C26.123,41.936 26.124,41.925 26.289,41.819C26.396,41.75 26.484,41.615 26.484,41.52C26.484,41.407 26.546,41.37 26.66,41.413C26.805,41.469 26.824,41.422 26.764,41.153C26.724,40.97 26.75,40.717 26.823,40.581C26.921,40.398 26.922,40.318 26.825,40.258C26.731,40.199 26.735,40.147 26.842,40.058C27.089,39.853 27.324,40.142 27.632,41.035C27.791,41.495 28.024,41.989 28.151,42.132C28.464,42.488 28.443,42.568 27.986,42.759L27.591,42.924L27.813,43.359C27.935,43.599 28.154,43.939 28.298,44.116C28.443,44.293 28.709,44.739 28.889,45.107C29.07,45.475 29.257,45.794 29.306,45.816C29.469,45.887 29.147,46.155 28.977,46.089C28.831,46.033 28.814,46.206 28.849,47.379C28.871,48.124 28.859,48.733 28.821,48.733C28.784,48.733 28.698,48.947 28.63,49.208C28.399,50.098 28.214,50.521 28.03,50.579C27.93,50.611 27.821,50.736 27.79,50.857C27.704,51.183 27.377,51.136 27.377,50.797C27.377,50.616 27.314,50.519 27.197,50.519C27.08,50.519 27.041,50.579 27.086,50.695C27.123,50.792 27.154,51.018 27.154,51.197C27.154,51.452 27.204,51.523 27.384,51.523C27.765,51.523 27.603,51.975 27.098,52.323C26.424,52.788 26.134,52.744 25.837,52.133M36.36,52.387C36.19,51.884 36.237,51.802 36.693,51.802C37.078,51.802 37.144,51.838 37.177,52.068C37.197,52.214 37.147,52.377 37.065,52.429C36.841,52.571 36.413,52.546 36.36,52.387M41.164,52.314C41.274,52.203 40.685,51.924 40.404,51.953C40.169,51.978 39.994,51.883 39.674,51.559C39.443,51.324 38.955,50.972 38.589,50.777C38.224,50.582 37.907,50.368 37.885,50.303C37.81,50.076 38.693,50.182 39.175,50.458C39.436,50.607 39.649,50.689 39.649,50.641C39.649,50.516 39.289,50.208 39.092,50.165C39,50.144 38.837,49.989 38.729,49.818C38.524,49.493 38.477,49.279 38.617,49.309C38.663,49.319 38.852,49.258 39.036,49.173L39.37,49.019L38.89,48.981C38.377,48.941 38.191,48.733 38.419,48.458C38.602,48.238 38.457,48.008 38.246,48.183C38.16,48.254 38.116,48.354 38.147,48.405C38.179,48.456 37.849,48.399 37.414,48.278C36.979,48.158 35.898,47.801 35.499,47.769C34.931,47.725 34.735,47.75 34.597,47.888C34.193,48.293 33.513,47.956 33.513,47.351C33.513,47.149 33.47,47.074 33.384,47.126C33.304,47.176 33.286,47.157 33.336,47.075C33.381,47.003 33.471,46.978 33.537,47.019C33.772,47.164 33.501,46.45 33.193,46.111C32.609,45.471 32.561,45.381 32.739,45.268C32.875,45.182 32.873,45.166 32.726,45.165C32.631,45.164 32.493,45.224 32.418,45.298C32.313,45.404 32.233,45.383 32.051,45.201C31.784,44.934 31.85,44.835 32.509,44.516C33.101,44.229 33.186,43.728 32.793,42.851C32.543,42.294 32.432,42.163 32.164,42.11C31.678,42.012 31.715,41.582 32.23,41.336C32.697,41.114 32.724,40.884 32.344,40.369C31.982,39.879 31.584,39.626 30.925,39.468C30.63,39.397 30.362,39.296 30.33,39.244C30.244,39.105 30.655,38.917 31.079,38.902C31.282,38.895 31.358,38.866 31.247,38.837C31.137,38.808 30.998,38.658 30.939,38.504C30.872,38.327 30.305,37.915 29.859,37.913C29.721,37.912 29.608,37.873 29.608,37.826C29.608,37.47 30.768,37.327 31.226,37.627C31.419,37.754 31.514,37.735 31.93,37.493C32.332,37.258 32.456,37.233 32.683,37.336C33.014,37.487 33.035,37.688 32.73,37.768C32.553,37.814 32.532,37.86 32.632,37.98C32.702,38.065 32.74,37.862 33.452,37.743C33.937,37.662 34.963,36.991 34.963,36.689C34.963,36.569 34.905,36.343 34.834,36.186C34.676,35.84 34.757,35.733 35.058,35.894C35.225,35.983 35.32,35.977 35.43,35.87C35.511,35.791 35.737,35.66 35.933,35.58C36.331,35.418 36.478,35.029 36.345,34.495C36.244,34.087 36.026,33.925 35.465,33.84C34.818,33.742 33.974,33.335 33.893,33.081C33.78,32.726 34.057,32.678 34.59,32.961C34.863,33.106 35.277,33.225 35.509,33.225C35.742,33.225 36.329,33.327 36.814,33.452C37.741,33.69 38.346,33.67 38.719,33.388C38.832,33.302 39.037,33.231 39.175,33.229C39.378,33.226 39.426,33.287 39.426,33.542C39.426,33.717 39.327,33.949 39.207,34.059C39.052,34.199 39.016,34.311 39.085,34.44C39.139,34.541 39.175,34.748 39.166,34.9C39.153,35.105 39.085,35.178 38.907,35.178C38.775,35.178 38.683,35.151 38.703,35.119C38.723,35.086 38.593,34.976 38.413,34.873C38.015,34.644 38.012,34.672 38.376,35.248C38.534,35.5 38.728,35.888 38.807,36.111L38.95,36.516L38.554,36.546C38.327,36.563 38.121,36.515 38.071,36.435C38.006,36.33 37.943,36.35 37.82,36.517C37.615,36.795 37.764,36.968 38.068,36.806C38.193,36.739 38.429,36.684 38.591,36.684C38.832,36.684 38.919,36.766 39.06,37.127C39.156,37.371 39.28,37.542 39.335,37.508C39.391,37.473 39.403,37.573 39.363,37.734C39.307,37.958 39.332,38.023 39.477,38.023C39.579,38.023 39.641,38.06 39.614,38.106C39.588,38.152 39.606,38.29 39.656,38.413C39.732,38.603 39.746,38.607 39.753,38.441C39.757,38.334 39.757,38.214 39.751,38.175C39.746,38.135 39.801,38.067 39.874,38.022C39.946,37.977 39.999,37.821 39.992,37.675C39.947,36.852 39.969,36.689 40.163,36.425C40.279,36.267 40.513,36.078 40.681,36.006C40.85,35.934 40.988,35.862 40.988,35.846C40.988,35.829 40.889,35.597 40.768,35.329C40.467,34.668 40.477,34.295 40.798,34.148C40.979,34.066 41.133,34.069 41.328,34.158C41.557,34.264 41.608,34.377 41.638,34.843C41.658,35.15 41.749,35.484 41.841,35.585C42.077,35.846 42.327,36.742 42.327,37.322C42.327,37.995 42.173,38.246 41.759,38.246C41.562,38.246 41.45,38.292 41.49,38.357C41.614,38.557 42.2,38.484 42.323,38.253C42.556,37.818 42.407,36.341 42.02,35.233C41.988,35.141 41.95,34.908 41.936,34.715C41.922,34.522 41.878,34.233 41.838,34.073C41.754,33.74 41.508,33.705 40.699,33.909C40.424,33.978 40.176,34.012 40.148,33.984C40.121,33.957 40.067,33.777 40.028,33.584C39.952,33.205 42.798,31.193 43.244,30.892C44.057,30.343 44.399,30.209 44.622,30.349C44.687,30.39 45.111,30.526 45.563,30.652C46.016,30.777 46.436,30.93 46.499,30.992C46.561,31.054 46.732,31.105 46.879,31.105C47.037,31.105 47.287,31.254 47.487,31.468C47.675,31.667 47.871,31.818 47.923,31.803C47.975,31.787 48.007,31.812 47.995,31.858C47.983,31.904 48.012,32.057 48.06,32.199C48.118,32.369 48.089,32.544 47.974,32.72C47.843,32.92 47.834,32.999 47.936,33.041C48.011,33.071 47.96,33.1 47.822,33.105C47.684,33.11 47.571,33.166 47.571,33.23C47.571,33.295 47.47,33.555 47.348,33.809C47.225,34.063 47.125,34.318 47.125,34.376C47.125,34.433 47.275,34.777 47.459,35.139C47.675,35.563 47.794,35.966 47.794,36.27C47.794,36.53 47.894,36.93 48.017,37.159C48.14,37.388 48.449,38.963 48.54,39.147C48.696,39.459 48.938,40.766 48.817,40.645C48.787,40.615 48.694,40.688 48.61,40.808C48.526,40.928 48.278,41.06 48.059,41.101C47.525,41.201 47.216,40.895 47.121,40.173C47.066,39.751 47.032,39.687 46.959,39.863C46.784,40.286 46.677,40.359 46.39,40.251C46.178,40.17 45.965,40.222 45.397,40.493C45,40.683 44.556,40.956 44.411,41.101C44.119,41.393 43.777,42.331 43.777,42.839C43.777,43.232 44.392,43.862 44.698,43.784C44.806,43.756 44.87,43.771 44.842,43.817C44.778,43.921 45.563,44.172 45.695,44.09C45.748,44.058 45.778,44.072 45.761,44.123C45.744,44.173 45.865,44.39 46.028,44.605C46.405,45.1 46.655,46.317 46.435,46.582C46.054,47.041 45.464,47.283 44.724,47.283C43.526,47.283 42.925,47.712 42.737,48.701C42.673,49.04 42.69,49.063 43.057,49.132C43.341,49.185 43.463,49.276 43.512,49.471C43.599,49.817 43.501,50.058 43.232,50.159C43.021,50.238 43.022,50.254 43.271,50.864C43.507,51.445 43.512,51.505 43.345,51.716C43.243,51.844 43.067,51.927 42.941,51.906C42.815,51.885 42.591,51.99 42.427,52.148C42.188,52.376 42.045,52.42 41.627,52.393C41.347,52.374 41.139,52.339 41.164,52.314M42.432,48.721C42.337,48.544 42.275,48.518 42.178,48.614C42.082,48.711 42.091,48.769 42.216,48.848C42.487,49.019 42.567,48.972 42.432,48.721M24.259,52.144C23.818,51.989 23.729,51.837 23.965,51.642C24.157,51.482 24.722,51.395 24.633,51.539C24.6,51.592 24.652,51.666 24.748,51.703C24.959,51.784 24.966,51.871 24.783,52.103C24.664,52.252 24.585,52.258 24.259,52.144M22.713,50.942C22.547,50.777 22.54,50.556 22.698,50.458C22.827,50.379 23.128,50.71 23.133,50.937C23.138,51.114 22.888,51.118 22.713,50.942M43.621,50.883C43.46,50.721 43.572,50.429 43.814,50.383C44.034,50.341 44.067,50.373 44.026,50.586C43.977,50.839 43.746,51.008 43.621,50.883M21.582,50.6C21.461,50.284 21.619,50.1 21.849,50.291C22.069,50.474 22.07,50.699 21.85,50.784C21.738,50.826 21.645,50.762 21.582,50.6M3.836,49.683C3.76,49.592 3.641,49.549 3.572,49.588C3.497,49.629 3.502,49.597 3.584,49.508C3.674,49.412 3.724,49.008 3.724,48.379C3.724,47.461 3.741,47.388 3.999,47.219C4.28,47.035 5.103,47.078 5.231,47.284C5.308,47.41 5.055,47.952 4.919,47.952C4.857,47.952 4.833,48.185 4.864,48.499C4.918,49.068 4.814,49.403 4.582,49.403C4.508,49.403 4.384,49.503 4.307,49.626C4.141,49.892 4.022,49.907 3.836,49.683M15.235,49.177C15.255,48.973 15.334,48.786 15.411,48.761C15.613,48.694 15.585,49.161 15.375,49.371C15.215,49.531 15.202,49.513 15.235,49.177M32.893,48.09C32.738,47.982 32.461,47.293 32.541,47.213C32.67,47.085 33.045,47.299 33.109,47.538C33.254,48.078 33.173,48.285 32.893,48.09M4.644,45.977C4.37,45.924 4.316,45.683 4.527,45.457C4.69,45.282 5.174,45.357 5.174,45.557C5.174,45.769 5.05,46.058 4.967,46.04C4.927,46.032 4.782,46.003 4.644,45.977M18.023,45.545C18.005,45.267 18.05,45.177 18.236,45.129C18.367,45.094 18.443,45.096 18.407,45.133C18.371,45.169 18.395,45.263 18.461,45.343C18.629,45.544 18.481,45.933 18.244,45.915C18.106,45.904 18.04,45.794 18.023,45.545M30.17,45.533C30.174,45.431 30.564,44.94 30.641,44.94C30.668,44.94 30.685,45.078 30.679,45.247C30.671,45.476 30.604,45.563 30.417,45.589C30.279,45.609 30.168,45.584 30.17,45.533M3.473,44.45C3.365,44.368 3.277,44.199 3.277,44.072C3.277,43.946 3.221,43.824 3.153,43.801C3.084,43.778 3.011,43.569 2.99,43.336C2.969,43.103 2.924,42.826 2.891,42.721C2.857,42.616 2.895,42.441 2.974,42.333C3.109,42.149 3.137,42.154 3.426,42.422C3.596,42.58 3.806,42.709 3.893,42.709C4.017,42.709 4.047,42.908 4.036,43.657C4.022,44.665 3.929,44.796 3.473,44.45M49.511,40.123C49.042,39.486 49.018,38.859 49.463,38.859C49.69,38.859 49.752,38.931 49.825,39.285C49.928,39.783 49.704,40.384 49.511,40.123M23.053,37.391C22.837,37.304 22.889,37.13 23.131,37.13C23.25,37.13 23.413,37.039 23.493,36.927C23.573,36.816 23.722,36.694 23.823,36.657C23.97,36.602 24.002,36.654 23.983,36.923C23.951,37.386 23.546,37.59 23.053,37.391M26.092,37.128C26.054,37.066 25.995,36.813 25.908,36.65C25.73,36.318 25.885,35.496 26.204,35.078C26.569,34.598 26.568,34.256 26.2,34.115C25.934,34.015 25.917,33.965 25.949,33.365C25.978,32.799 26.011,32.719 26.229,32.688C26.418,32.661 26.49,32.72 26.536,32.939C26.569,33.096 26.624,33.36 26.659,33.524C26.693,33.689 26.844,33.969 26.993,34.147C27.149,34.331 27.265,34.612 27.265,34.803C27.265,35.086 27.299,35.126 27.488,35.066C27.611,35.027 27.711,35.013 27.711,35.035C27.711,35.057 27.611,35.272 27.488,35.512C27.365,35.753 27.265,36.052 27.264,36.177C27.264,36.303 27.212,36.593 27.148,36.823C27.039,37.215 27.004,37.242 26.597,37.242C26.358,37.242 26.131,37.191 26.092,37.128M32.431,35.199C31.834,34.791 31.639,34.02 32.231,34.407C32.378,34.504 32.73,34.719 32.849,34.822C33.091,35.029 33.145,35.46 32.927,35.45C32.851,35.446 32.627,35.333 32.431,35.199M24.833,33.984C24.759,33.91 24.699,33.731 24.699,33.586C24.699,33.364 24.748,33.327 25.006,33.357C25.261,33.387 25.318,33.453 25.348,33.755C25.376,34.047 25.342,34.118 25.175,34.118C25.06,34.118 24.906,34.057 24.833,33.984M36.636,19.929C36.198,19.449 36.243,19.241 36.806,19.156C37.05,19.119 37.383,19.052 37.545,19.008C37.98,18.887 38.034,19.11 37.658,19.469C37.479,19.641 37.314,19.877 37.292,19.995C37.224,20.346 36.996,20.323 36.636,19.929M31.021,10.39C30.98,10.349 30.947,10.236 30.947,10.138C30.947,10.034 29.832,9.399 29.834,9.362C29.835,9.324 30.274,8.681 30.275,8.615C30.282,8.255 32.768,7.732 33.178,8.004C33.484,8.208 33.109,8.599 32.481,8.731C32.229,8.784 32.174,8.855 32.174,9.128C32.174,9.451 31.846,9.907 31.614,9.907C31.551,9.907 31.452,10.032 31.393,10.186C31.288,10.463 31.163,10.532 31.021,10.39"/>
</svg>