<svg viewBox="0 0 39 39" fill="currentColor" aria-hidden="true">
    <path d="M22.04,15.66C22.04,15.019 21.521,14.5 20.88,14.5L16.24,14.5C15.599,14.5 15.08,15.019 15.08,15.66L15.08,31.9L22.04,31.9L22.04,15.66ZM31.9,17.98C31.9,17.339 31.381,16.82 30.74,16.82L26.1,16.82C25.459,16.82 24.94,17.339 24.94,17.98L24.94,31.9L31.9,31.9L31.9,17.98ZM36.54,34.8L1.74,34.8C0.779,34.8 0,35.58 0,36.54C0,37.501 0.779,38.28 1.74,38.28L36.54,38.28C37.5,38.28 38.28,37.501 38.28,36.54C38.28,35.58 37.5,34.8 36.54,34.8M12.18,21.46C12.18,20.819 11.661,20.3 11.02,20.3L6.38,20.3C5.739,20.3 5.22,20.819 5.22,21.46L5.22,31.9L12.18,31.9L12.18,21.46Z"/>
    <path d="M33.582,0.011L28.367,0.756C27.527,0.876 27.184,1.903 27.784,2.503L28.989,3.708L24.783,7.915L17.871,2.674C17.231,2.189 16.34,2.205 15.716,2.716L4.696,11.774C3.952,12.384 3.846,13.481 4.455,14.223C4.8,14.642 5.298,14.858 5.801,14.858C6.19,14.858 6.581,14.729 6.904,14.463L16.863,6.277L23.889,11.605C24.58,12.129 25.554,12.065 26.17,11.448L31.45,6.169L32.255,6.973C32.854,7.573 33.882,7.231 34.002,6.391L34.747,1.176C34.844,0.496 34.261,-0.086 33.582,0.011"/>
</svg>
