<svg viewBox="0 0 40 36" fill="currentColor" aria-hidden="true">
    <path d="M27.336,33.567C27.127,33.509 26.899,33.5 26.68,33.5C21.051,33.497 15.422,33.497 9.793,33.5C9.573,33.5 9.345,33.507 9.136,33.567C8.695,33.694 8.441,34.012 8.382,34.466C8.323,34.919 8.531,35.35 8.939,35.535C9.155,35.633 9.413,35.676 9.653,35.676C12.506,35.686 15.36,35.682 18.213,35.682C21.041,35.682 23.868,35.683 26.696,35.682C26.839,35.682 26.983,35.687 27.126,35.674C27.637,35.624 28.047,35.209 28.091,34.704C28.138,34.182 27.834,33.704 27.336,33.567"/>
    <path d="M22.408,26.963L13.925,26.963C13.863,28.827 13.57,30.627 12.931,32.385L23.467,32.385C23.234,31.496 22.96,30.628 22.786,29.739C22.61,28.836 22.533,27.912 22.408,26.963"/>
    <path d="M0.014,21.599C0.014,22.386 -0.026,23.131 0.031,23.868C0.059,24.226 0.211,24.608 0.409,24.914C0.876,25.635 1.6,25.846 2.438,25.845C12.971,25.836 23.504,25.84 34.036,25.839C34.154,25.839 34.271,25.838 34.388,25.833C35.4,25.788 36.258,25.134 36.388,24.131C36.495,23.304 36.41,22.452 36.41,21.599L0.014,21.599Z"/>
    <path d="M31.774,16.449C31.765,15.411 31.765,14.373 31.774,13.336C31.781,12.45 32.2,11.722 32.917,11.277C32.927,11.136 32.942,10.991 32.965,10.843C33.23,9.148 34.726,7.869 36.461,7.83L36.461,1.699C36.461,0.528 35.937,-0 34.774,-0L2.395,-0C0.861,-0 0.008,0.858 0.008,2.4C0.007,8.266 0.008,14.131 0.008,19.997L0.008,20.457L36.461,20.457L36.461,18.917C35.714,18.917 34.966,18.915 34.219,18.91C32.883,18.902 31.786,17.798 31.774,16.449M17.221,2.977L19.24,2.977L19.24,5.003L17.221,5.003L17.221,2.977ZM10.973,2.985L12.997,2.985L12.997,5.006L10.973,5.006L10.973,2.985ZM12.994,17.507L10.973,17.507L10.973,15.459L12.994,15.459L12.994,17.507ZM13.003,11.251L10.981,11.251L10.981,9.239L13.003,9.239L13.003,11.251ZM17.219,9.224L19.252,9.224L19.252,11.249L17.219,11.249L17.219,9.224ZM19.254,17.504L17.223,17.504L17.223,15.46L19.254,15.46L19.254,17.504ZM25.5,17.496L23.464,17.496L23.464,15.467L25.5,15.467L25.5,17.496ZM25.5,11.253L23.476,11.253L23.476,9.236L25.5,9.236L25.5,11.253ZM25.996,4.539C25.84,4.545 25.684,4.54 25.527,4.54L25.036,4.54C25.036,4.847 25.039,5.14 25.035,5.433C25.029,5.882 24.824,6.126 24.467,6.116C24.121,6.106 23.945,5.882 23.939,5.438C23.936,5.178 23.936,4.917 23.932,4.657C23.931,4.634 23.915,4.61 23.888,4.54C23.598,4.54 23.29,4.546 22.982,4.539C22.586,4.528 22.359,4.325 22.357,3.992C22.355,3.655 22.578,3.454 22.975,3.445C23.275,3.439 23.573,3.444 23.939,3.444C23.939,3.091 23.934,2.782 23.941,2.473C23.95,2.078 24.155,1.857 24.495,1.863C24.814,1.869 25.015,2.087 25.034,2.457C25.042,2.612 25.036,2.769 25.036,2.925L25.036,3.444C25.367,3.444 25.674,3.439 25.981,3.445C26.384,3.452 26.607,3.647 26.611,3.981C26.615,4.314 26.387,4.523 25.996,4.539"/>
    <path d="M36.137,15.125C35.968,14.946 35.823,14.78 35.665,14.629C35.491,14.465 35.266,14.473 35.119,14.631C34.978,14.782 34.975,14.997 35.132,15.165C35.375,15.423 35.625,15.676 35.882,15.919C36.049,16.078 36.245,16.082 36.409,15.919C36.919,15.416 37.424,14.907 37.922,14.391C38.079,14.227 38.063,14.004 37.914,13.858C37.766,13.713 37.557,13.713 37.384,13.862C37.331,13.909 37.283,13.962 37.234,14.013C36.88,14.372 36.526,14.73 36.137,15.125M38.027,12.216C38.027,11.928 38.034,11.667 38.026,11.406C38.005,10.763 37.575,10.203 36.966,10.013C36.364,9.825 35.717,10.039 35.327,10.542C34.932,11.052 35.016,11.636 35.026,12.216L38.027,12.216ZM34.241,12.209C34.261,11.824 34.249,11.433 34.309,11.054C34.485,9.924 35.522,9.12 36.676,9.188C37.795,9.254 38.728,10.204 38.778,11.336C38.79,11.62 38.78,11.905 38.78,12.204C38.87,12.223 38.952,12.238 39.032,12.258C39.55,12.384 39.907,12.814 39.911,13.349C39.918,14.379 39.92,15.409 39.91,16.438C39.905,17.05 39.42,17.546 38.816,17.55C37.286,17.56 35.757,17.56 34.227,17.55C33.623,17.546 33.14,17.048 33.134,16.437C33.125,15.407 33.125,14.377 33.134,13.348C33.139,12.739 33.537,12.342 34.241,12.209"/>
</svg>