<svg viewBox="0 0 47 44" fill="currentColor" aria-hidden="true">
    <path d="M13.255,22.324C12.144,21.213 10.3,21.281 9.279,22.529C8.391,23.615 8.581,25.231 9.573,26.223L12.518,29.168C13.098,29.749 13.098,30.691 12.518,31.272C11.937,31.853 10.995,31.853 10.414,31.272L7.553,28.411C6.463,27.321 5.839,25.88 5.777,24.349L5.8,17.4C5.8,15.7 4.336,14.341 2.6,14.515C1.091,14.666 0,16.049 0,17.566L0,24.713C0,26.358 0.582,27.949 1.643,29.205L8.158,36.915C8.268,37.045 8.429,37.12 8.6,37.12L20.51,37.137C20.831,37.137 21.091,36.878 21.091,36.557L21.091,33.044C21.091,31.198 20.358,29.428 19.053,28.122L13.255,22.324ZM43.523,14.515C41.787,14.341 40.324,15.7 40.324,17.4L40.347,24.349C40.284,25.88 39.66,27.321 38.57,28.411L35.71,31.272C35.129,31.853 34.187,31.853 33.606,31.272C33.025,30.691 33.025,29.749 33.606,29.168L36.551,26.223C37.542,25.231 37.732,23.615 36.844,22.529C35.824,21.281 33.979,21.213 32.868,22.324L27.07,28.122C25.765,29.428 25.032,31.198 25.032,33.044L25.032,36.557C25.032,36.878 25.292,37.137 25.613,37.137L37.523,37.12C37.694,37.12 37.856,37.045 37.966,36.915L44.48,29.205C45.541,27.949 46.124,26.358 46.124,24.713L46.124,17.566C46.124,16.049 45.032,14.666 43.523,14.515"/>
    <path d="M20.822,40.339L8.911,40.339C8.591,40.339 8.331,40.599 8.331,40.919L8.331,43.239C8.331,43.559 8.591,43.819 8.911,43.819L20.822,43.819C21.142,43.819 21.402,43.559 21.402,43.239L21.402,40.919C21.402,40.599 21.142,40.339 20.822,40.339M37.213,40.339L25.302,40.339C24.982,40.339 24.722,40.599 24.722,40.919L24.722,43.239C24.722,43.559 24.982,43.819 25.302,43.819L37.213,43.819C37.533,43.819 37.793,43.559 37.793,43.239L37.793,40.919C37.793,40.599 37.533,40.339 37.213,40.339M35.011,11.6C35.011,5.193 29.818,0 23.411,0C17.005,0 11.811,5.193 11.811,11.6C11.811,18.006 17.005,23.2 23.411,23.2C29.818,23.2 35.011,18.006 35.011,11.6M22.675,9.544L25.355,10.922C26.876,11.705 27.682,13.313 27.411,15.016C27.191,16.383 26.31,17.457 25.091,17.943L25.091,18.429C25.091,19.23 24.441,19.879 23.641,19.879C22.84,19.879 22.191,19.23 22.191,18.429L22.191,18.042C20.896,17.656 19.802,16.717 19.24,15.423C18.92,14.689 19.257,13.835 19.992,13.515C20.727,13.197 21.58,13.533 21.899,14.267C22.205,14.972 22.935,15.399 23.688,15.33L23.819,15.314C24.38,15.225 24.515,14.756 24.547,14.559C24.574,14.386 24.617,13.804 24.027,13.501L21.349,12.122C19.812,11.331 18.994,9.654 19.312,7.945C19.601,6.399 20.71,5.259 22.191,4.918L22.191,4.509C22.191,3.709 22.84,3.059 23.641,3.059C24.441,3.059 25.091,3.709 25.091,4.509L25.091,5.226C26.12,5.692 26.978,6.521 27.455,7.618C27.774,8.353 27.437,9.206 26.703,9.526C25.967,9.845 25.113,9.507 24.795,8.773C24.489,8.069 23.762,7.651 23.007,7.711C22.359,7.779 22.202,8.269 22.163,8.478C22.131,8.65 22.073,9.233 22.675,9.544"/>
</svg>
